<?xml version="1.0" encoding="UTF-8" standalone="no"?>
<!DOCTYPE svg PUBLIC "-//W3C//DTD SVG 1.1//EN"
 "http://www.w3.org/Graphics/SVG/1.1/DTD/svg11.dtd">
<!-- Generated by graphviz version 14.0.4 (20251115.1723)
 -->
<!-- Title: dependency&#45;cruiser output Pages: 1 -->
<svg width="692pt" height="454pt"
 viewBox="0.00 0.00 692.00 454.00" xmlns="http://www.w3.org/2000/svg" xmlns:xlink="http://www.w3.org/1999/xlink">
<g id="graph0" class="graph" transform="scale(1 1) rotate(0) translate(4 450)">
<title>dependency&#45;cruiser output</title>
<polygon fill="white" stroke="none" points="-4,4 -4,-450 687.75,-450 687.75,4 -4,4"/>
<g id="clust1" class="cluster">
<title>cluster_src</title>
<path fill="#ffffff" stroke="black" stroke-width="2" d="M20,-8C20,-8 663.75,-8 663.75,-8 669.75,-8 675.75,-14 675.75,-20 675.75,-20 675.75,-426 675.75,-426 675.75,-432 669.75,-438 663.75,-438 663.75,-438 20,-438 20,-438 14,-438 8,-432 8,-426 8,-426 8,-20 8,-20 8,-14 14,-8 20,-8"/>
<text xml:space="preserve" text-anchor="middle" x="341.88" y="-425.45" font-family="Helvetica,sans-Serif" font-weight="bold" font-size="9.00">src</text>
</g>
<g id="clust2" class="cluster">
<title>cluster_src/plant&#45;form</title>
<path fill="#ffffff" stroke="black" stroke-width="2" d="M462,-360C462,-360 655.75,-360 655.75,-360 661.75,-360 667.75,-366 667.75,-372 667.75,-372 667.75,-400 667.75,-400 667.75,-406 661.75,-412 655.75,-412 655.75,-412 462,-412 462,-412 456,-412 450,-406 450,-400 450,-400 450,-372 450,-372 450,-366 456,-360 462,-360"/>
<text xml:space="preserve" text-anchor="middle" x="558.88" y="-399.45" font-family="Helvetica,sans-Serif" font-weight="bold" font-size="9.00">plant&#45;form</text>
</g>
<g id="clust3" class="cluster">
<title>cluster_src/plant&#45;list</title>
<path fill="#ffffff" stroke="black" stroke-width="2" d="M28,-50C28,-50 542.75,-50 542.75,-50 548.75,-50 554.75,-56 554.75,-62 554.75,-62 554.75,-190 554.75,-190 554.75,-196 548.75,-202 542.75,-202 542.75,-202 28,-202 28,-202 22,-202 16,-196 16,-190 16,-190 16,-62 16,-62 16,-56 22,-50 28,-50"/>
<text xml:space="preserve" text-anchor="middle" x="285.38" y="-189.45" font-family="Helvetica,sans-Serif" font-weight="bold" font-size="9.00">plant&#45;list</text>
</g>
<g id="clust4" class="cluster">
<title>cluster_src/shared</title>
<path fill="#ffffff" stroke="black" stroke-width="2" d="M441,-210C441,-210 546.5,-210 546.5,-210 552.5,-210 558.5,-216 558.5,-222 558.5,-222 558.5,-340 558.5,-340 558.5,-346 552.5,-352 546.5,-352 546.5,-352 441,-352 441,-352 435,-352 429,-346 429,-340 429,-340 429,-222 429,-222 429,-216 435,-210 441,-210"/>
<text xml:space="preserve" text-anchor="middle" x="493.75" y="-339.45" font-family="Helvetica,sans-Serif" font-weight="bold" font-size="9.00">shared</text>
</g>
<!-- src/App.tsx -->
<g id="node1" class="node">
<title>src/App.tsx</title>
<g id="a_node1"><a xlink:href="src/App.tsx" xlink:title="App.tsx">
<path fill="#bbfeff" stroke="black" d="M389.08,-308.88C389.08,-308.88 346.92,-308.88 346.92,-308.88 343.96,-308.88 341,-305.92 341,-302.96 341,-302.96 341,-297.04 341,-297.04 341,-294.08 343.96,-291.12 346.92,-291.12 346.92,-291.12 389.08,-291.12 389.08,-291.12 392.04,-291.12 395,-294.08 395,-297.04 395,-297.04 395,-302.96 395,-302.96 395,-305.92 392.04,-308.88 389.08,-308.88"/>
<text xml:space="preserve" text-anchor="start" x="353" y="-296.32" font-family="Helvetica,sans-Serif" font-size="9.00">App.tsx</text>
</a>
</g>
</g>
<!-- src/plant&#45;form/PlantForm.tsx -->
<g id="node2" class="node">
<title>src/plant&#45;form/PlantForm.tsx</title>
<g id="a_node2"><a xlink:href="src/plant-form/PlantForm.tsx" xlink:title="PlantForm.tsx">
<path fill="#bbfeff" stroke="black" d="M523.58,-385.88C523.58,-385.88 463.92,-385.88 463.92,-385.88 460.96,-385.88 458,-382.92 458,-379.96 458,-379.96 458,-374.04 458,-374.04 458,-371.08 460.96,-368.12 463.92,-368.12 463.92,-368.12 523.58,-368.12 523.58,-368.12 526.54,-368.12 529.5,-371.08 529.5,-374.04 529.5,-374.04 529.5,-379.96 529.5,-379.96 529.5,-382.92 526.54,-385.88 523.58,-385.88"/>
<text xml:space="preserve" text-anchor="start" x="466" y="-373.32" font-family="Helvetica,sans-Serif" font-size="9.00">PlantForm.tsx</text>
</a>
</g>
</g>
<!-- src/App.tsx&#45;&gt;src/plant&#45;form/PlantForm.tsx -->
<g id="edge1" class="edge">
<title>src/App.tsx&#45;&gt;src/plant&#45;form/PlantForm.tsx</title>
<path fill="none" stroke="#000000" stroke-width="2" stroke-opacity="0.200000" d="M395.5,-302.04C404.75,-304.06 414.45,-307.88 421,-315 433.27,-328.34 417.07,-341.35 429,-355 434.37,-361.15 441.55,-365.58 449.15,-368.78"/>
<polygon fill="#000000" fill-opacity="0.200000" stroke="#000000" stroke-width="2" stroke-opacity="0.200000" points="448.3,-370.7 454.66,-370.76 449.72,-366.75 448.3,-370.7"/>
</g>
<!-- src/shared/TabBarCompound.tsx -->
<g id="node3" class="node">
<title>src/shared/TabBarCompound.tsx</title>
<g id="a_node3"><a xlink:href="src/shared/TabBarCompound.tsx" xlink:title="TabBarCompound.tsx">
<path fill="#bbfeff" stroke="black" d="M540.08,-265.88C540.08,-265.88 447.42,-265.88 447.42,-265.88 444.46,-265.88 441.5,-262.92 441.5,-259.96 441.5,-259.96 441.5,-254.04 441.5,-254.04 441.5,-251.08 444.46,-248.12 447.42,-248.12 447.42,-248.12 540.08,-248.12 540.08,-248.12 543.04,-248.12 546,-251.08 546,-254.04 546,-254.04 546,-259.96 546,-259.96 546,-262.92 543.04,-265.88 540.08,-265.88"/>
<text xml:space="preserve" text-anchor="start" x="449.5" y="-253.32" font-family="Helvetica,sans-Serif" font-size="9.00">TabBarCompound.tsx</text>
</a>
</g>
</g>
<!-- src/App.tsx&#45;&gt;src/shared/TabBarCompound.tsx -->
<g id="edge2" class="edge">
<title>src/App.tsx&#45;&gt;src/shared/TabBarCompound.tsx</title>
<path fill="none" stroke="#000000" stroke-width="2" stroke-opacity="0.200000" d="M395.33,-296.35C404.14,-294.15 413.59,-290.63 421,-285 426.4,-280.89 423.5,-275.97 429,-272 430.38,-271 431.82,-270.07 433.31,-269.2"/>
<polygon fill="#000000" fill-opacity="0.200000" stroke="#000000" stroke-width="2" stroke-opacity="0.200000" points="433.92,-271.24 438.35,-266.68 432.04,-267.48 433.92,-271.24"/>
</g>
<!-- src/plant&#45;form/IntervalSelector.tsx -->
<g id="node8" class="node">
<title>src/plant&#45;form/IntervalSelector.tsx</title>
<g id="a_node8"><a xlink:href="src/plant-form/IntervalSelector.tsx" xlink:title="IntervalSelector.tsx">
<path fill="#bbfeff" stroke="black" d="M653.83,-385.88C653.83,-385.88 572.42,-385.88 572.42,-385.88 569.46,-385.88 566.5,-382.92 566.5,-379.96 566.5,-379.96 566.5,-374.04 566.5,-374.04 566.5,-371.08 569.46,-368.12 572.42,-368.12 572.42,-368.12 653.83,-368.12 653.83,-368.12 656.79,-368.12 659.75,-371.08 659.75,-374.04 659.75,-374.04 659.75,-379.96 659.75,-379.96 659.75,-382.92 656.79,-385.88 653.83,-385.88"/>
<text xml:space="preserve" text-anchor="start" x="574.5" y="-373.32" font-family="Helvetica,sans-Serif" font-size="9.00">IntervalSelector.tsx</text>
</a>
</g>
</g>
<!-- src/plant&#45;form/PlantForm.tsx&#45;&gt;src/plant&#45;form/IntervalSelector.tsx -->
<g id="edge7" class="edge">
<title>src/plant&#45;form/PlantForm.tsx&#45;&gt;src/plant&#45;form/IntervalSelector.tsx</title>
<path fill="none" stroke="#000000" stroke-width="2" stroke-opacity="0.200000" d="M529.97,-377C538.56,-377 547.96,-377 557.24,-377"/>
<polygon fill="#000000" fill-opacity="0.200000" stroke="#000000" stroke-width="2" stroke-opacity="0.200000" points="557.03,-379.1 563.03,-377 557.03,-374.9 557.03,-379.1"/>
</g>
<!-- src/create&#45;query&#45;client.tsx -->
<g id="node4" class="node">
<title>src/create&#45;query&#45;client.tsx</title>
<g id="a_node4"><a xlink:href="src/create-query-client.tsx" xlink:title="create&#45;query&#45;client.tsx">
<path fill="#bbfeff" stroke="black" d="M415.08,-338.88C415.08,-338.88 320.92,-338.88 320.92,-338.88 317.96,-338.88 315,-335.92 315,-332.96 315,-332.96 315,-327.04 315,-327.04 315,-324.08 317.96,-321.12 320.92,-321.12 320.92,-321.12 415.08,-321.12 415.08,-321.12 418.04,-321.12 421,-324.08 421,-327.04 421,-327.04 421,-332.96 421,-332.96 421,-335.92 418.04,-338.88 415.08,-338.88"/>
<text xml:space="preserve" text-anchor="start" x="323" y="-326.32" font-family="Helvetica,sans-Serif" font-size="9.00">create&#45;query&#45;client.tsx</text>
</a>
</g>
</g>
<!-- src/index.css -->
<g id="node5" class="node">
<title>src/index.css</title>
<g id="a_node5"><a xlink:href="src/index.css" xlink:title="index.css">
<path fill="#ffffcc" stroke="black" d="M389.21,-368.88C389.21,-368.88 346.79,-368.88 346.79,-368.88 343.83,-368.88 340.88,-365.92 340.88,-362.96 340.88,-362.96 340.88,-357.04 340.88,-357.04 340.88,-354.08 343.83,-351.12 346.79,-351.12 346.79,-351.12 389.21,-351.12 389.21,-351.12 392.17,-351.12 395.12,-354.08 395.12,-357.04 395.12,-357.04 395.12,-362.96 395.12,-362.96 395.12,-365.92 392.17,-368.88 389.21,-368.88"/>
<text xml:space="preserve" text-anchor="start" x="348.88" y="-356.32" font-family="Helvetica,sans-Serif" font-size="9.00">index.css</text>
</a>
</g>
</g>
<!-- src/main.tsx -->
<g id="node6" class="node">
<title>src/main.tsx</title>
<g id="a_node6"><a xlink:href="src/main.tsx" xlink:title="main.tsx">
<path fill="#bbfeff" stroke="black" d="M280.58,-323.88C280.58,-323.88 238.42,-323.88 238.42,-323.88 235.46,-323.88 232.5,-320.92 232.5,-317.96 232.5,-317.96 232.5,-312.04 232.5,-312.04 232.5,-309.08 235.46,-306.12 238.42,-306.12 238.42,-306.12 280.58,-306.12 280.58,-306.12 283.54,-306.12 286.5,-309.08 286.5,-312.04 286.5,-312.04 286.5,-317.96 286.5,-317.96 286.5,-320.92 283.54,-323.88 280.58,-323.88"/>
<text xml:space="preserve" text-anchor="start" x="242.62" y="-311.32" font-family="Helvetica,sans-Serif" font-size="9.00">main.tsx</text>
</a>
</g>
</g>
<!-- src/main.tsx&#45;&gt;src/App.tsx -->
<g id="edge3" class="edge">
<title>src/main.tsx&#45;&gt;src/App.tsx</title>
<path fill="none" stroke="#000000" stroke-width="2" stroke-opacity="0.200000" d="M286.83,-311.29C300.39,-309.38 317.13,-307.02 331.79,-304.96"/>
<polygon fill="#000000" fill-opacity="0.200000" stroke="#000000" stroke-width="2" stroke-opacity="0.200000" points="331.96,-307.06 337.61,-304.14 331.38,-302.9 331.96,-307.06"/>
</g>
<!-- src/main.tsx&#45;&gt;src/create&#45;query&#45;client.tsx -->
<g id="edge4" class="edge">
<title>src/main.tsx&#45;&gt;src/create&#45;query&#45;client.tsx</title>
<path fill="none" stroke="#000000" stroke-width="2" stroke-opacity="0.200000" d="M286.83,-318.71C292.8,-319.55 299.39,-320.48 306.15,-321.43"/>
<polygon fill="#000000" fill-opacity="0.200000" stroke="#000000" stroke-width="2" stroke-opacity="0.200000" points="305.53,-323.46 311.77,-322.22 306.12,-319.3 305.53,-323.46"/>
</g>
<!-- src/main.tsx&#45;&gt;src/index.css -->
<g id="edge5" class="edge">
<title>src/main.tsx&#45;&gt;src/index.css</title>
<path fill="none" stroke="#000000" stroke-width="2" stroke-opacity="0.200000" d="M275.32,-324.34C286.04,-330.79 301.03,-339.22 315,-345 320.43,-347.24 326.3,-349.28 332.08,-351.09"/>
<polygon fill="#000000" fill-opacity="0.200000" stroke="#000000" stroke-width="2" stroke-opacity="0.200000" points="331.17,-353.01 337.52,-352.7 332.36,-348.98 331.17,-353.01"/>
</g>
<!-- src/setup&#45;dayjs.ts -->
<g id="node7" class="node">
<title>src/setup&#45;dayjs.ts</title>
<g id="a_node7"><a xlink:href="src/setup-dayjs.ts" xlink:title="setup&#45;dayjs.ts">
<path fill="#ddfeff" stroke="black" d="M398.21,-278.88C398.21,-278.88 337.79,-278.88 337.79,-278.88 334.83,-278.88 331.88,-275.92 331.88,-272.96 331.88,-272.96 331.88,-267.04 331.88,-267.04 331.88,-264.08 334.83,-261.12 337.79,-261.12 337.79,-261.12 398.21,-261.12 398.21,-261.12 401.17,-261.12 404.12,-264.08 404.12,-267.04 404.12,-267.04 404.12,-272.96 404.12,-272.96 404.12,-275.92 401.17,-278.88 398.21,-278.88"/>
<text xml:space="preserve" text-anchor="start" x="339.88" y="-266.32" font-family="Helvetica,sans-Serif" font-size="9.00">setup&#45;dayjs.ts</text>
</a>
</g>
</g>
<!-- src/main.tsx&#45;&gt;src/setup&#45;dayjs.ts -->
<g id="edge6" class="edge">
<title>src/main.tsx&#45;&gt;src/setup&#45;dayjs.ts</title>
<path fill="none" stroke="#000000" stroke-width="2" stroke-opacity="0.200000" d="M275.32,-305.66C286.04,-299.21 301.03,-290.78 315,-285 317.6,-283.92 320.31,-282.89 323.07,-281.91"/>
<polygon fill="#000000" fill-opacity="0.200000" stroke="#000000" stroke-width="2" stroke-opacity="0.200000" points="323.5,-283.98 328.52,-280.09 322.17,-280 323.5,-283.98"/>
</g>
<!-- src/plant&#45;list/AllPlantsList.tsx -->
<g id="node9" class="node">
<title>src/plant&#45;list/AllPlantsList.tsx</title>
<g id="a_node9"><a xlink:href="src/plant-list/AllPlantsList.tsx" xlink:title="AllPlantsList.tsx">
<path fill="#bbfeff" stroke="black" d="M186.83,-75.88C186.83,-75.88 118.92,-75.88 118.92,-75.88 115.96,-75.88 113,-72.92 113,-69.96 113,-69.96 113,-64.04 113,-64.04 113,-61.08 115.96,-58.12 118.92,-58.12 118.92,-58.12 186.83,-58.12 186.83,-58.12 189.79,-58.12 192.75,-61.08 192.75,-64.04 192.75,-64.04 192.75,-69.96 192.75,-69.96 192.75,-72.92 189.79,-75.88 186.83,-75.88"/>
<text xml:space="preserve" text-anchor="start" x="121" y="-63.33" font-family="Helvetica,sans-Serif" font-size="9.00">AllPlantsList.tsx</text>
</a>
</g>
</g>
<!-- src/types.ts -->
<g id="node10" class="node">
<title>src/types.ts</title>
<g id="a_node10"><a xlink:href="src/types.ts" xlink:title="types.ts">
<path fill="#ddfeff" stroke="black" d="M634.21,-60.88C634.21,-60.88 592.04,-60.88 592.04,-60.88 589.08,-60.88 586.12,-57.92 586.12,-54.96 586.12,-54.96 586.12,-49.04 586.12,-49.04 586.12,-46.08 589.08,-43.12 592.04,-43.12 592.04,-43.12 634.21,-43.12 634.21,-43.12 637.17,-43.12 640.12,-46.08 640.12,-49.04 640.12,-49.04 640.12,-54.96 640.12,-54.96 640.12,-57.92 637.17,-60.88 634.21,-60.88"/>
<text xml:space="preserve" text-anchor="start" x="597.75" y="-48.33" font-family="Helvetica,sans-Serif" font-size="9.00">types.ts</text>
</a>
</g>
</g>
<!-- src/plant&#45;list/AllPlantsList.tsx&#45;&gt;src/types.ts -->
<g id="edge8" class="edge">
<title>src/plant&#45;list/AllPlantsList.tsx&#45;&gt;src/types.ts</title>
<path fill="none" stroke="#000000" stroke-width="2" stroke-opacity="0.200000" d="M193,-59.06C196.83,-57.64 200.57,-55.96 204,-54 211.09,-49.94 209.45,-44.13 217,-41 287.11,-11.96 483,-33.34 558.5,-41 564.54,-41.61 570.89,-42.6 577.04,-43.75"/>
<polygon fill="#000000" fill-opacity="0.200000" stroke="#000000" stroke-width="2" stroke-opacity="0.200000" points="576.57,-45.79 582.86,-44.91 577.39,-41.67 576.57,-45.79"/>
</g>
<!-- src/plant&#45;list/PlantCardList.tsx -->
<g id="node11" class="node">
<title>src/plant&#45;list/PlantCardList.tsx</title>
<g id="a_node11"><a xlink:href="src/plant-list/PlantCardList.tsx" xlink:title="PlantCardList.tsx">
<path fill="#bbfeff" stroke="black" d="M296.08,-119.88C296.08,-119.88 222.92,-119.88 222.92,-119.88 219.96,-119.88 217,-116.92 217,-113.96 217,-113.96 217,-108.04 217,-108.04 217,-105.08 219.96,-102.12 222.92,-102.12 222.92,-102.12 296.08,-102.12 296.08,-102.12 299.04,-102.12 302,-105.08 302,-108.04 302,-108.04 302,-113.96 302,-113.96 302,-116.92 299.04,-119.88 296.08,-119.88"/>
<text xml:space="preserve" text-anchor="start" x="225" y="-107.33" font-family="Helvetica,sans-Serif" font-size="9.00">PlantCardList.tsx</text>
</a>
</g>
</g>
<!-- src/plant&#45;list/AllPlantsList.tsx&#45;&gt;src/plant&#45;list/PlantCardList.tsx -->
<g id="edge9" class="edge">
<title>src/plant&#45;list/AllPlantsList.tsx&#45;&gt;src/plant&#45;list/PlantCardList.tsx</title>
<path fill="none" stroke="#000000" stroke-width="2" stroke-opacity="0.200000" d="M173.03,-76.31C185.45,-82.22 202.04,-89.87 217,-96 219.05,-96.84 221.16,-97.68 223.3,-98.51"/>
<polygon fill="#000000" fill-opacity="0.200000" stroke="#000000" stroke-width="2" stroke-opacity="0.200000" points="222.4,-100.41 228.75,-100.57 223.88,-96.49 222.4,-100.41"/>
</g>
<!-- src/plant&#45;list/plantsQueryOptions.ts -->
<g id="node12" class="node">
<title>src/plant&#45;list/plantsQueryOptions.ts</title>
<g id="a_node12"><a xlink:href="src/plant-list/plantsQueryOptions.ts" xlink:title="plantsQueryOptions.ts">
<path fill="#ddfeff" stroke="black" d="M540.83,-111.88C540.83,-111.88 446.67,-111.88 446.67,-111.88 443.71,-111.88 440.75,-108.92 440.75,-105.96 440.75,-105.96 440.75,-100.04 440.75,-100.04 440.75,-97.08 443.71,-94.12 446.67,-94.12 446.67,-94.12 540.83,-94.12 540.83,-94.12 543.79,-94.12 546.75,-97.08 546.75,-100.04 546.75,-100.04 546.75,-105.96 546.75,-105.96 546.75,-108.92 543.79,-111.88 540.83,-111.88"/>
<text xml:space="preserve" text-anchor="start" x="448.75" y="-99.33" font-family="Helvetica,sans-Serif" font-size="9.00">plantsQueryOptions.ts</text>
</a>
</g>
</g>
<!-- src/plant&#45;list/AllPlantsList.tsx&#45;&gt;src/plant&#45;list/plantsQueryOptions.ts -->
<g id="edge10" class="edge">
<title>src/plant&#45;list/AllPlantsList.tsx&#45;&gt;src/plant&#45;list/plantsQueryOptions.ts</title>
<path fill="none" stroke="#000000" stroke-width="2" stroke-opacity="0.200000" d="M192.94,-66.28C200.9,-66.17 209.22,-66.06 217,-66 254.78,-65.7 267.89,-49.76 302,-66 310.27,-69.94 306.92,-77.68 315,-82 335.86,-93.16 397.52,-89.09 421,-92 424.42,-92.42 427.93,-92.88 431.47,-93.36"/>
<polygon fill="#000000" fill-opacity="0.200000" stroke="#000000" stroke-width="2" stroke-opacity="0.200000" points="431.06,-95.43 437.29,-94.18 431.64,-91.27 431.06,-95.43"/>
</g>
<!-- src/plant&#45;list/PlantCardList.tsx&#45;&gt;src/types.ts -->
<g id="edge19" class="edge">
<title>src/plant&#45;list/PlantCardList.tsx&#45;&gt;src/types.ts</title>
<path fill="none" stroke="#000000" stroke-width="2" stroke-opacity="0.200000" d="M286.62,-101.63C299.1,-97.2 311.98,-92.72 315,-92 321.33,-90.49 499.32,-66.9 576.73,-56.67"/>
<polygon fill="#000000" fill-opacity="0.200000" stroke="#000000" stroke-width="2" stroke-opacity="0.200000" points="576.98,-58.76 582.66,-55.89 576.43,-54.59 576.98,-58.76"/>
</g>
<!-- src/plant&#45;list/PlantCard.tsx -->
<g id="node15" class="node">
<title>src/plant&#45;list/PlantCard.tsx</title>
<g id="a_node15"><a xlink:href="src/plant-list/PlantCard.tsx" xlink:title="PlantCard.tsx">
<path fill="#bbfeff" stroke="black" d="M397.46,-147.88C397.46,-147.88 338.54,-147.88 338.54,-147.88 335.58,-147.88 332.62,-144.92 332.62,-141.96 332.62,-141.96 332.62,-136.04 332.62,-136.04 332.62,-133.08 335.58,-130.12 338.54,-130.12 338.54,-130.12 397.46,-130.12 397.46,-130.12 400.42,-130.12 403.38,-133.08 403.38,-136.04 403.38,-136.04 403.38,-141.96 403.38,-141.96 403.38,-144.92 400.42,-147.88 397.46,-147.88"/>
<text xml:space="preserve" text-anchor="start" x="340.62" y="-135.32" font-family="Helvetica,sans-Serif" font-size="9.00">PlantCard.tsx</text>
</a>
</g>
</g>
<!-- src/plant&#45;list/PlantCardList.tsx&#45;&gt;src/plant&#45;list/PlantCard.tsx -->
<g id="edge20" class="edge">
<title>src/plant&#45;list/PlantCardList.tsx&#45;&gt;src/plant&#45;list/PlantCard.tsx</title>
<path fill="none" stroke="#000000" stroke-width="2" stroke-opacity="0.200000" d="M295.96,-120.32C304.86,-122.66 314.5,-125.2 323.73,-127.62"/>
<polygon fill="#000000" fill-opacity="0.200000" stroke="#000000" stroke-width="2" stroke-opacity="0.200000" points="323.15,-129.64 329.49,-129.14 324.22,-125.58 323.15,-129.64"/>
</g>
<!-- src/plant&#45;list/plantsQueryOptions.ts&#45;&gt;src/types.ts -->
<g id="edge30" class="edge">
<title>src/plant&#45;list/plantsQueryOptions.ts&#45;&gt;src/types.ts</title>
<path fill="none" stroke="#000000" stroke-width="2" stroke-opacity="0.200000" d="M547.14,-94.18C551.05,-92.96 554.87,-91.57 558.5,-90 571.81,-84.23 585.13,-74.82 595.16,-66.81"/>
<polygon fill="#000000" fill-opacity="0.200000" stroke="#000000" stroke-width="2" stroke-opacity="0.200000" points="596.22,-68.66 599.51,-63.22 593.54,-65.42 596.22,-68.66"/>
</g>
<!-- src/plant&#45;list/FavoritePlantsList.tsx -->
<g id="node13" class="node">
<title>src/plant&#45;list/FavoritePlantsList.tsx</title>
<g id="a_node13"><a xlink:href="src/plant-list/FavoritePlantsList.tsx" xlink:title="FavoritePlantsList.tsx">
<path fill="#bbfeff" stroke="black" d="M198.08,-133.88C198.08,-133.88 107.67,-133.88 107.67,-133.88 104.71,-133.88 101.75,-130.92 101.75,-127.96 101.75,-127.96 101.75,-122.04 101.75,-122.04 101.75,-119.08 104.71,-116.12 107.67,-116.12 107.67,-116.12 198.08,-116.12 198.08,-116.12 201.04,-116.12 204,-119.08 204,-122.04 204,-122.04 204,-127.96 204,-127.96 204,-130.92 201.04,-133.88 198.08,-133.88"/>
<text xml:space="preserve" text-anchor="start" x="109.75" y="-121.33" font-family="Helvetica,sans-Serif" font-size="9.00">FavoritePlantsList.tsx</text>
</a>
</g>
</g>
<!-- src/plant&#45;list/FavoritePlantsList.tsx&#45;&gt;src/types.ts -->
<g id="edge11" class="edge">
<title>src/plant&#45;list/FavoritePlantsList.tsx&#45;&gt;src/types.ts</title>
<path fill="none" stroke="#000000" stroke-width="2" stroke-opacity="0.200000" d="M165.95,-115.66C176.45,-107.3 191.84,-94.49 204,-82 210.39,-75.44 208.94,-70.35 217,-66 278.48,-32.8 492.06,-43.55 576.94,-49.35"/>
<polygon fill="#000000" fill-opacity="0.200000" stroke="#000000" stroke-width="2" stroke-opacity="0.200000" points="576.55,-51.42 582.68,-49.75 576.84,-47.23 576.55,-51.42"/>
</g>
<!-- src/plant&#45;list/FavoritePlantsList.tsx&#45;&gt;src/plant&#45;list/PlantCardList.tsx -->
<g id="edge12" class="edge">
<title>src/plant&#45;list/FavoritePlantsList.tsx&#45;&gt;src/plant&#45;list/PlantCardList.tsx</title>
<path fill="none" stroke="#000000" stroke-width="2" stroke-opacity="0.200000" d="M204.35,-118.25C205.5,-118.09 206.64,-117.94 207.79,-117.79"/>
<polygon fill="#000000" fill-opacity="0.200000" stroke="#000000" stroke-width="2" stroke-opacity="0.200000" points="207.85,-119.9 213.52,-117.02 207.3,-115.73 207.85,-119.9"/>
</g>
<!-- src/plant&#45;list/FavoritePlantsList.tsx&#45;&gt;src/plant&#45;list/plantsQueryOptions.ts -->
<g id="edge13" class="edge">
<title>src/plant&#45;list/FavoritePlantsList.tsx&#45;&gt;src/plant&#45;list/plantsQueryOptions.ts</title>
<path fill="none" stroke="#000000" stroke-width="2" stroke-opacity="0.200000" d="M204.18,-125.87C208.52,-125.92 212.84,-125.97 217,-126 254.78,-126.3 267.1,-140.46 302,-126 309.55,-122.87 307.54,-116.34 315,-113 351.28,-96.76 395.97,-94.32 431.46,-95.9"/>
<polygon fill="#000000" fill-opacity="0.200000" stroke="#000000" stroke-width="2" stroke-opacity="0.200000" points="431.14,-97.99 437.25,-96.22 431.37,-93.79 431.14,-97.99"/>
</g>
<!-- src/plant&#45;list/useFavoritesStore.ts -->
<g id="node14" class="node">
<title>src/plant&#45;list/useFavoritesStore.ts</title>
<g id="a_node14"><a xlink:href="src/plant-list/useFavoritesStore.ts" xlink:title="useFavoritesStore.ts">
<path fill="#ddfeff" stroke="black" d="M537.46,-169.88C537.46,-169.88 450.04,-169.88 450.04,-169.88 447.08,-169.88 444.12,-166.92 444.12,-163.96 444.12,-163.96 444.12,-158.04 444.12,-158.04 444.12,-155.08 447.08,-152.12 450.04,-152.12 450.04,-152.12 537.46,-152.12 537.46,-152.12 540.42,-152.12 543.38,-155.08 543.38,-158.04 543.38,-158.04 543.38,-163.96 543.38,-163.96 543.38,-166.92 540.42,-169.88 537.46,-169.88"/>
<text xml:space="preserve" text-anchor="start" x="452.12" y="-157.32" font-family="Helvetica,sans-Serif" font-size="9.00">useFavoritesStore.ts</text>
</a>
</g>
</g>
<!-- src/plant&#45;list/FavoritePlantsList.tsx&#45;&gt;src/plant&#45;list/useFavoritesStore.ts -->
<g id="edge14" class="edge">
<title>src/plant&#45;list/FavoritePlantsList.tsx&#45;&gt;src/plant&#45;list/useFavoritesStore.ts</title>
<path fill="none" stroke="#000000" stroke-width="2" stroke-opacity="0.200000" d="M196.39,-134.32C228.74,-141 274.45,-149.57 315,-154 355.05,-158.37 400.43,-160.11 435.32,-160.75"/>
<polygon fill="#000000" fill-opacity="0.200000" stroke="#000000" stroke-width="2" stroke-opacity="0.200000" points="434.89,-162.85 440.93,-160.85 434.96,-158.65 434.89,-162.85"/>
</g>
<!-- src/plant&#45;list/PlantCard.tsx&#45;&gt;src/plant&#45;form/PlantForm.tsx -->
<g id="edge15" class="edge">
<title>src/plant&#45;list/PlantCard.tsx&#45;&gt;src/plant&#45;form/PlantForm.tsx</title>
<path fill="none" stroke="#000000" stroke-width="2" stroke-opacity="0.200000" d="M403.62,-141.19C410.31,-143.23 416.6,-146.58 421,-152 435.24,-169.52 415.54,-336.88 429,-355 434.13,-361.91 441.57,-366.66 449.57,-369.93"/>
<polygon fill="#000000" fill-opacity="0.200000" stroke="#000000" stroke-width="2" stroke-opacity="0.200000" points="448.47,-371.77 454.83,-371.74 449.84,-367.8 448.47,-371.77"/>
</g>
<!-- src/plant&#45;list/PlantCard.tsx&#45;&gt;src/plant&#45;list/plantsQueryOptions.ts -->
<g id="edge17" class="edge">
<title>src/plant&#45;list/PlantCard.tsx&#45;&gt;src/plant&#45;list/plantsQueryOptions.ts</title>
<path fill="none" stroke="#000000" stroke-width="2" stroke-opacity="0.200000" d="M401.19,-129.64C416.8,-125.09 435.72,-119.59 452.3,-114.77"/>
<polygon fill="#000000" fill-opacity="0.200000" stroke="#000000" stroke-width="2" stroke-opacity="0.200000" points="452.64,-116.86 457.81,-113.16 451.47,-112.82 452.64,-116.86"/>
</g>
<!-- src/plant&#45;list/PlantCard.tsx&#45;&gt;src/plant&#45;list/useFavoritesStore.ts -->
<g id="edge18" class="edge">
<title>src/plant&#45;list/PlantCard.tsx&#45;&gt;src/plant&#45;list/useFavoritesStore.ts</title>
<path fill="none" stroke="#000000" stroke-width="2" stroke-opacity="0.200000" d="M403.8,-145.19C413.62,-146.93 424.56,-148.88 435.33,-150.79"/>
<polygon fill="#000000" fill-opacity="0.200000" stroke="#000000" stroke-width="2" stroke-opacity="0.200000" points="434.65,-152.8 440.92,-151.79 435.38,-148.67 434.65,-152.8"/>
</g>
<!-- src/shared/date&#45;utils.ts -->
<g id="node16" class="node">
<title>src/shared/date&#45;utils.ts</title>
<g id="a_node16"><a xlink:href="src/shared/date-utils.ts" xlink:title="date&#45;utils.ts">
<path fill="#ddfeff" stroke="black" d="M519.08,-235.88C519.08,-235.88 468.42,-235.88 468.42,-235.88 465.46,-235.88 462.5,-232.92 462.5,-229.96 462.5,-229.96 462.5,-224.04 462.5,-224.04 462.5,-221.08 465.46,-218.12 468.42,-218.12 468.42,-218.12 519.08,-218.12 519.08,-218.12 522.04,-218.12 525,-221.08 525,-224.04 525,-224.04 525,-229.96 525,-229.96 525,-232.92 522.04,-235.88 519.08,-235.88"/>
<text xml:space="preserve" text-anchor="start" x="470.5" y="-223.32" font-family="Helvetica,sans-Serif" font-size="9.00">date&#45;utils.ts</text>
</a>
</g>
</g>
<!-- src/plant&#45;list/PlantCard.tsx&#45;&gt;src/shared/date&#45;utils.ts -->
<g id="edge16" class="edge">
<title>src/plant&#45;list/PlantCard.tsx&#45;&gt;src/shared/date&#45;utils.ts</title>
<path fill="none" stroke="#000000" stroke-width="2" stroke-opacity="0.200000" d="M403.72,-141.73C410.24,-143.76 416.43,-146.97 421,-152 437.02,-169.63 413.76,-186.69 429,-205 435.31,-212.58 444.37,-217.55 453.68,-220.81"/>
<polygon fill="#000000" fill-opacity="0.200000" stroke="#000000" stroke-width="2" stroke-opacity="0.200000" points="452.98,-222.8 459.33,-222.49 454.18,-218.77 452.98,-222.8"/>
</g>
<!-- src/plant&#45;list/PlantDetails.tsx -->
<g id="node17" class="node">
<title>src/plant&#45;list/PlantDetails.tsx</title>
<g id="a_node17"><a xlink:href="src/plant-list/PlantDetails.tsx" xlink:title="PlantDetails.tsx">
<path fill="#bbfeff" stroke="black" d="M293.08,-89.88C293.08,-89.88 225.92,-89.88 225.92,-89.88 222.96,-89.88 220,-86.92 220,-83.96 220,-83.96 220,-78.04 220,-78.04 220,-75.08 222.96,-72.12 225.92,-72.12 225.92,-72.12 293.08,-72.12 293.08,-72.12 296.04,-72.12 299,-75.08 299,-78.04 299,-78.04 299,-83.96 299,-83.96 299,-86.92 296.04,-89.88 293.08,-89.88"/>
<text xml:space="preserve" text-anchor="start" x="228" y="-77.33" font-family="Helvetica,sans-Serif" font-size="9.00">PlantDetails.tsx</text>
</a>
</g>
</g>
<!-- src/plant&#45;list/PlantDetails.tsx&#45;&gt;src/types.ts -->
<g id="edge21" class="edge">
<title>src/plant&#45;list/PlantDetails.tsx&#45;&gt;src/types.ts</title>
<path fill="none" stroke="#000000" stroke-width="2" stroke-opacity="0.200000" d="M299.36,-71.65C304.6,-70.63 309.91,-69.7 315,-69 409.06,-56.04 521.19,-52.93 576.98,-52.2"/>
<polygon fill="#000000" fill-opacity="0.200000" stroke="#000000" stroke-width="2" stroke-opacity="0.200000" points="576.75,-54.3 582.73,-52.14 576.71,-50.1 576.75,-54.3"/>
</g>
<!-- src/plant&#45;list/PlantDetails.tsx&#45;&gt;src/plant&#45;list/PlantCard.tsx -->
<g id="edge22" class="edge">
<title>src/plant&#45;list/PlantDetails.tsx&#45;&gt;src/plant&#45;list/PlantCard.tsx</title>
<path fill="none" stroke="#000000" stroke-width="2" stroke-opacity="0.200000" d="M289.01,-90.28C293.43,-92.02 297.89,-93.94 302,-96 318.22,-104.15 335.29,-115.57 347.87,-124.59"/>
<polygon fill="#000000" fill-opacity="0.200000" stroke="#000000" stroke-width="2" stroke-opacity="0.200000" points="346.54,-126.22 352.62,-128.06 349.01,-122.83 346.54,-126.22"/>
</g>
<!-- src/plant&#45;list/PlantList.tsx -->
<g id="node18" class="node">
<title>src/plant&#45;list/PlantList.tsx</title>
<g id="a_node18"><a xlink:href="src/plant-list/PlantList.tsx" xlink:title="PlantList.tsx">
<path fill="#bbfeff" stroke="black" d="M82.83,-111.88C82.83,-111.88 29.92,-111.88 29.92,-111.88 26.96,-111.88 24,-108.92 24,-105.96 24,-105.96 24,-100.04 24,-100.04 24,-97.08 26.96,-94.12 29.92,-94.12 29.92,-94.12 82.83,-94.12 82.83,-94.12 85.79,-94.12 88.75,-97.08 88.75,-100.04 88.75,-100.04 88.75,-105.96 88.75,-105.96 88.75,-108.92 85.79,-111.88 82.83,-111.88"/>
<text xml:space="preserve" text-anchor="start" x="32" y="-99.33" font-family="Helvetica,sans-Serif" font-size="9.00">PlantList.tsx</text>
</a>
</g>
</g>
<!-- src/plant&#45;list/PlantList.tsx&#45;&gt;src/plant&#45;list/AllPlantsList.tsx -->
<g id="edge24" class="edge">
<title>src/plant&#45;list/PlantList.tsx&#45;&gt;src/plant&#45;list/AllPlantsList.tsx</title>
<path fill="none" stroke="#000000" stroke-width="2" stroke-opacity="0.200000" d="M79.88,-93.67C86.86,-90.82 94.61,-87.73 101.75,-85 106.62,-83.14 111.77,-81.22 116.85,-79.37"/>
<polygon fill="#000000" fill-opacity="0.200000" stroke="#000000" stroke-width="2" stroke-opacity="0.200000" points="117.49,-81.37 122.42,-77.36 116.06,-77.42 117.49,-81.37"/>
</g>
<!-- src/plant&#45;list/PlantList.tsx&#45;&gt;src/types.ts -->
<g id="edge23" class="edge">
<title>src/plant&#45;list/PlantList.tsx&#45;&gt;src/types.ts</title>
<path fill="none" stroke="#000000" stroke-width="2" stroke-opacity="0.200000" d="M62.75,-93.92C70.07,-82.36 84.3,-62.61 101.75,-52 162.73,-14.9 187.12,-17 258.5,-17 258.5,-17 258.5,-17 369,-17 453.34,-17 476.67,-6.59 558.5,-27 568.72,-29.55 579.37,-34.07 588.45,-38.58"/>
<polygon fill="#000000" fill-opacity="0.200000" stroke="#000000" stroke-width="2" stroke-opacity="0.200000" points="587.32,-40.35 593.61,-41.25 589.25,-36.63 587.32,-40.35"/>
</g>
<!-- src/plant&#45;list/PlantList.tsx&#45;&gt;src/plant&#45;list/PlantCardList.tsx -->
<g id="edge26" class="edge">
<title>src/plant&#45;list/PlantList.tsx&#45;&gt;src/plant&#45;list/PlantCardList.tsx</title>
<path fill="none" stroke="#000000" stroke-width="2" stroke-opacity="0.200000" d="M89.24,-104.27C121.14,-105.54 170.68,-107.51 207.94,-108.99"/>
<polygon fill="#000000" fill-opacity="0.200000" stroke="#000000" stroke-width="2" stroke-opacity="0.200000" points="207.55,-111.07 213.63,-109.22 207.72,-106.88 207.55,-111.07"/>
</g>
<!-- src/plant&#45;list/PlantList.tsx&#45;&gt;src/plant&#45;list/plantsQueryOptions.ts -->
<g id="edge28" class="edge">
<title>src/plant&#45;list/PlantList.tsx&#45;&gt;src/plant&#45;list/plantsQueryOptions.ts</title>
<path fill="none" stroke="#000000" stroke-width="2" stroke-opacity="0.200000" d="M83.88,-112.34C85.61,-113.44 87.26,-114.66 88.75,-116 97.76,-124.12 91.33,-133.79 101.75,-140 178.26,-185.57 218,-162.57 302,-133 308.63,-130.67 308.43,-126.49 315,-124 325.85,-119.9 384.56,-113.43 431.58,-108.76"/>
<polygon fill="#000000" fill-opacity="0.200000" stroke="#000000" stroke-width="2" stroke-opacity="0.200000" points="431.73,-110.85 437.49,-108.18 431.32,-106.67 431.73,-110.85"/>
</g>
<!-- src/plant&#45;list/PlantList.tsx&#45;&gt;src/plant&#45;list/FavoritePlantsList.tsx -->
<g id="edge25" class="edge">
<title>src/plant&#45;list/PlantList.tsx&#45;&gt;src/plant&#45;list/FavoritePlantsList.tsx</title>
<path fill="none" stroke="#000000" stroke-width="2" stroke-opacity="0.200000" d="M89.11,-110.39C93.66,-111.45 98.44,-112.56 103.23,-113.68"/>
<polygon fill="#000000" fill-opacity="0.200000" stroke="#000000" stroke-width="2" stroke-opacity="0.200000" points="102.57,-115.68 108.89,-114.99 103.52,-111.59 102.57,-115.68"/>
</g>
<!-- src/plant&#45;list/PlantList.tsx&#45;&gt;src/plant&#45;list/useFavoritesStore.ts -->
<g id="edge29" class="edge">
<title>src/plant&#45;list/PlantList.tsx&#45;&gt;src/plant&#45;list/useFavoritesStore.ts</title>
<path fill="none" stroke="#000000" stroke-width="2" stroke-opacity="0.200000" d="M84.47,-112.25C86.03,-113.36 87.47,-114.61 88.75,-116 101.68,-130.08 86.43,-145.56 101.75,-157 127.72,-176.39 332.56,-169.07 434.93,-164.11"/>
<polygon fill="#000000" fill-opacity="0.200000" stroke="#000000" stroke-width="2" stroke-opacity="0.200000" points="435,-166.21 440.89,-163.82 434.79,-162.01 435,-166.21"/>
</g>
<!-- src/plant&#45;list/PlantList.tsx&#45;&gt;src/plant&#45;list/PlantDetails.tsx -->
<g id="edge27" class="edge">
<title>src/plant&#45;list/PlantList.tsx&#45;&gt;src/plant&#45;list/PlantDetails.tsx</title>
<path fill="none" stroke="#000000" stroke-width="2" stroke-opacity="0.200000" d="M89.24,-99.51C121.96,-95.94 173.24,-90.33 210.79,-86.22"/>
<polygon fill="#000000" fill-opacity="0.200000" stroke="#000000" stroke-width="2" stroke-opacity="0.200000" points="210.8,-88.33 216.53,-85.59 210.34,-84.16 210.8,-88.33"/>
</g>
<!-- src/shared/TabBar.tsx -->
<g id="node19" class="node">
<title>src/shared/TabBar.tsx</title>
<g id="a_node19"><a xlink:href="src/shared/TabBar.tsx" xlink:title="no&#45;orphans">
<path fill="#ccffcc" stroke="orange" d="M517.21,-295.88C517.21,-295.88 470.29,-295.88 470.29,-295.88 467.33,-295.88 464.38,-292.92 464.38,-289.96 464.38,-289.96 464.38,-284.04 464.38,-284.04 464.38,-281.08 467.33,-278.12 470.29,-278.12 470.29,-278.12 517.21,-278.12 517.21,-278.12 520.17,-278.12 523.12,-281.08 523.12,-284.04 523.12,-284.04 523.12,-289.96 523.12,-289.96 523.12,-292.92 520.17,-295.88 517.21,-295.88"/>
<text xml:space="preserve" text-anchor="start" x="472.38" y="-283.32" font-family="Helvetica,sans-Serif" font-size="9.00" fill="orange">TabBar.tsx</text>
</a>
</g>
</g>
<!-- src/shared/TabBarRenderProps.tsx -->
<g id="node20" class="node">
<title>src/shared/TabBarRenderProps.tsx</title>
<g id="a_node20"><a xlink:href="src/shared/TabBarRenderProps.tsx" xlink:title="no&#45;orphans">
<path fill="#ccffcc" stroke="orange" d="M544.58,-325.88C544.58,-325.88 442.92,-325.88 442.92,-325.88 439.96,-325.88 437,-322.92 437,-319.96 437,-319.96 437,-314.04 437,-314.04 437,-311.08 439.96,-308.12 442.92,-308.12 442.92,-308.12 544.58,-308.12 544.58,-308.12 547.54,-308.12 550.5,-311.08 550.5,-314.04 550.5,-314.04 550.5,-319.96 550.5,-319.96 550.5,-322.92 547.54,-325.88 544.58,-325.88"/>
<text xml:space="preserve" text-anchor="start" x="445" y="-313.32" font-family="Helvetica,sans-Serif" font-size="9.00" fill="orange">TabBarRenderProps.tsx</text>
</a>
</g>
</g>
<!-- src/vite&#45;env.d.ts -->
<g id="node21" class="node">
<title>src/vite&#45;env.d.ts</title>
<g id="a_node21"><a xlink:href="src/vite-env.d.ts" xlink:title="vite&#45;env.d.ts">
<path fill="#ccffcc" stroke="black" d="M82.83,-319.88C82.83,-319.88 29.92,-319.88 29.92,-319.88 26.96,-319.88 24,-316.92 24,-313.96 24,-313.96 24,-308.04 24,-308.04 24,-305.08 26.96,-302.12 29.92,-302.12 29.92,-302.12 82.83,-302.12 82.83,-302.12 85.79,-302.12 88.75,-305.08 88.75,-308.04 88.75,-308.04 88.75,-313.96 88.75,-313.96 88.75,-316.92 85.79,-319.88 82.83,-319.88"/>
<text xml:space="preserve" text-anchor="start" x="32" y="-307.32" font-family="Helvetica,sans-Serif" font-size="9.00">vite&#45;env.d.ts</text>
</a>
</g>
</g>
</g>
</svg>
